<svg id="black_king" data-name="black king" xmlns="http://www.w3.org/2000/svg" viewBox="0 0 100 100">
  <defs>
    <style>
      .cls-1 {
        fill: #666;
        stroke: #000;
        stroke-miterlimit: 10;
      }

      .cls-2 {
        fill: #f2f2f2;
        opacity: 0.75;
      }

      .cls-3 {
        opacity: 0.25;
      }

      .cls-4 {
        fill: none;
      }
    </style>
  </defs>
  <title>blackking</title>
  <path class="cls-1" d="M80.30688,80h-.13a9.8656,9.8656,0,0,0-.32-2.51,9.99281,9.99281,0,0,0-5.04-6.34,8.52856,8.52856,0,0,0-.97-.44995c-.23-.09-.46-.18005-.7-.25l.99-.96c13.48-13.16,19.15-23.47,17.62-32.21a15.51619,15.51619,0,0,0-.55-2.21,15.71872,15.71872,0,0,0-6.31005-8.22c-7.83-5.35-19.89-5.35-24.72-5.35a17.77248,17.77248,0,0,0-2.65.2,16.90225,16.90225,0,0,0-4.35,1.27V16h7V10h-7V4h-6v6h-7v6h7v6.97a17.20923,17.20923,0,0,0-7-1.47c-6.58,0-26.61,0-31.03,13.57-3,9.19995,2.43,20.13,17.07,34.42l.99005.96a10.01036,10.01036,0,0,0-7.03,9.55,10.00362,10.00362,0,0,0-10,10h80a10.00517,10.00517,0,0,0-9.87-10Zm-37.63-15.72c-1.98-1.74-4.06-3.64-6.09-5.63-14.04-13.73-13.19-18.88995-13.18-18.94.01-.03,2.22-3.21,16.77-3.21a2.50091,2.50091,0,0,1,2.5,2.5Zm15-25.28a2.50091,2.50091,0,0,1,2.5-2.5c14.55,0,16.76,3.18,16.77,3.21.01.05.86,5.21-13.18,18.94-2.03,1.99-4.11005,3.89-6.09,5.63Z"/>
  <ellipse class="cls-2" cx="17.41881" cy="29.4537" rx="6.22222" ry="1.56481" transform="translate(-13.86079 15.57845) rotate(-35.4786)"/>
  <path class="cls-3" d="M53.17687,16v6.97a16.90225,16.90225,0,0,1,4.35-1.27,45.82846,45.82846,0,0,0-7.35,3.37V4h3v6h7v6Z"/>
  <g>
    <path class="cls-3" d="M72.588,70.82581"/>
    <path class="cls-3" d="M72.6845,70.7037a11.586,11.586,0,0,1,4.29859,2.43388A9.76678,9.76678,0,0,1,80.315,80.39816a12.44007,12.44007,0,0,1,1.64893.11295H58.45839c8.01713,0,14.53317-2.629,14.53317-5.87415,0-1.54043-.59428-2.8858-3.0051-3.93326Z"/>
  </g>
  <path class="cls-3" d="M74.1369,69.49l-.99.96c.24.06995.47.16.7.25l-15.38847.4111c12.8296-6.16667,25.71816-20.84164,32.1382-37.61166C94.84354,45.33333,87.61688,56.33,74.1369,69.49Z"/>
  <rect class="cls-4" width="100" height="100"/>
</svg>
