<svg id="black" xmlns="http://www.w3.org/2000/svg" viewBox="0 0 60.92999 71.00271">
  <defs>
    <style>
      .cls-1 {
        fill: none;
      }

      .cls-1, .cls-2, .cls-3 {
        stroke: #000;
        stroke-miterlimit: 10;
      }

      .cls-2 {
        fill: gray;
      }

      .cls-3 {
        fill: #4d4d4d;
      }

      .cls-4 {
        fill: #f2f2f2;
        opacity: 0.75;
      }

      .cls-5 {
        opacity: 0.25;
      }

      .cls-6 {
        opacity: 0.32;
      }
    </style>
  </defs>
  <title>blackpawn</title>
  <line class="cls-1" x1="20.53998" y1="10.5727" x2="20.49998" y2="10.5727"/>
  <path class="cls-2" d="M57.71,70.07" transform="translate(-19.5 -19.49729)"/>
  <line class="cls-1" x1="30.57998" y1="0.6127" x2="30.57998" y2="0.5727"/>
  <path class="cls-2" d="M40.04,46.89" transform="translate(-19.5 -19.49729)"/>
  <path class="cls-2" d="M59.93,39.11" transform="translate(-19.5 -19.49729)"/>
  <path class="cls-2" d="M59.93,47.02" transform="translate(-19.5 -19.49729)"/>
  <path class="cls-3" d="M79.93,87.01V90H20V87.01A7.01186,7.01186,0,0,1,27.01,80h.15A18.96006,18.96006,0,0,0,30,79.49a19.87656,19.87656,0,0,0,10-6.12,18.76694,18.76694,0,0,0,2.37-3.3,19.77555,19.77555,0,0,0,2.67-9.96V60a19.7959,19.7959,0,0,0-2.66-9.85l-.02-.04a19.35257,19.35257,0,0,0-2.32-3.22V39.11H45.6a10.0966,10.0966,0,0,1-5.51-10.59,10.06989,10.06989,0,0,1,19.71-.94,10.23081,10.23081,0,0,1,.31,2.49,10.07467,10.07467,0,0,1-5.63,9.04h5.45v7.91a19.23583,19.23583,0,0,0-2.2,3.09c-.02.01-.03.01995-.02.04A19.70067,19.70067,0,0,0,55.04,60v.11a19.77555,19.77555,0,0,0,2.67,9.96,19.067,19.067,0,0,0,2.22,3.13A19.84524,19.84524,0,0,0,70,79.47a20.047,20.047,0,0,0,2.92.53A6.61919,6.61919,0,0,1,75.2,80.39a6.95957,6.95957,0,0,1,4.73,6.62Z" transform="translate(-19.5 -19.49729)"/>
  <ellipse class="cls-4" cx="45.41657" cy="25.40732" rx="4.5" ry="2" transform="translate(-23.3897 22.55601) rotate(-47.87876)"/>
  <path class="cls-5" d="M75.2,80.39a22.06788,22.06788,0,0,1-4.71.5c-11.23,0-20.34-8.21-20.34-18.32995,0-6.64,3.91-12.46,9.78-15.68006v.14a19.23583,19.23583,0,0,0-2.2,3.09c-.02.01-.03.01995-.02.04A19.70067,19.70067,0,0,0,55.04,60v.11a19.77555,19.77555,0,0,0,2.67,9.96,19.067,19.067,0,0,0,2.22,3.13A19.84524,19.84524,0,0,0,70,79.47a20.047,20.047,0,0,0,2.92.53A6.61919,6.61919,0,0,1,75.2,80.39Z" transform="translate(-19.5 -19.49729)"/>
  <path class="cls-6" d="M60.11,30.07a10.23081,10.23081,0,0,0-.31-2.49c-.96,5.07-7.23,8.97-14.81,8.97a21.25059,21.25059,0,0,1-2.8-.18,9.98683,9.98683,0,0,0,3.41,2.74H41.65a34.17545,34.17545,0,0,0,6.83.67,34.35032,34.35032,0,0,0,6.84-.67h-.84A10.07467,10.07467,0,0,0,60.11,30.07Z" transform="translate(-19.5 -19.49729)"/>
</svg>
