<svg id="queen" xmlns="http://www.w3.org/2000/svg" viewBox="0 0 81 81">
  <defs>
    <style>
      .cls-1 {
        fill: #999;
        stroke: #000;
        stroke-miterlimit: 10;
      }

      .cls-2 {
        fill: #f2f2f2;
      }

      .cls-3 {
        opacity: 0.25;
      }
    </style>
  </defs>
  <title>queen</title>
  <path class="cls-1" d="M90,90H10A10.00362,10.00362,0,0,1,20,80,10.00362,10.00362,0,0,1,30,70L19.66,49.33l-.98-1.96a5.98448,5.98448,0,0,0,2.35-2.11L25,47.83,33,53,31.48,32.53l-.04-.55a5.78866,5.78866,0,0,0,2.04-.52l.21.46L41,48l5.94-18.48a10.16056,10.16056,0,0,0,1.37.34c.21.03.42.06.64.08a5.85919,5.85919,0,0,0,.6.04c.08,0,.16.01.24.01A1.47569,1.47569,0,0,0,50,30h.11a.80812.80812,0,0,0,.16-.01,5.485,5.485,0,0,0,.58-.03c.26-.02.51-.05.76-.09a10.20954,10.20954,0,0,0,1.45-.35l.01.03L59,48l7.52-16.54c.04.02.08.04.13.06l.15.06a.14231.14231,0,0,0,.06.02.0764.0764,0,0,0,.05.02.494.494,0,0,0,.17005.06c.12.04.24.08.36.11.11.03.21.06.32.08.05.01.09.02.14.03.12.02.24.04.36.05.08.00995.17.02.25.03h.05L67,53l11.97-7.74c.05.06995.09.13995.15.21a3.92576,3.92576,0,0,0,.25.32,5.76453,5.76453,0,0,0,1.95,1.58L70,70a9.855,9.855,0,0,1,3.09.5c.06994.02.12994.04.2.06A9.996,9.996,0,0,1,80,80,10.00361,10.00361,0,0,1,90,90Z" transform="translate(-9.5 -9.5)"/>
  <g>
    <g>
      <path class="cls-1" d="M22,42a5.89322,5.89322,0,0,1-.97,3.26,5.99979,5.99979,0,1,1-.1-6.67A5.90127,5.90127,0,0,1,22,42Z" transform="translate(-9.5 -9.5)"/>
      <path class="cls-1" d="M37,26a5.99928,5.99928,0,0,1-3.52,5.46,5.78866,5.78866,0,0,1-2.04.52c-.14.01-.29.02-.44.02a6,6,0,1,1,6-6Z" transform="translate(-9.5 -9.5)"/>
    </g>
    <g>
      <path class="cls-1" d="M90,42a5.99659,5.99659,0,0,1-1.55,4.03,5.34043,5.34043,0,0,1-.6.57,1.15427,1.15427,0,0,1-.25.2,4.07552,4.07552,0,0,1-.48.33.031.031,0,0,0-.02.01c-.01.01-.02.01-.03.02-.11.07-.22.13-.33.19-.01.01-.02.01-.03.02-.12.05-.25.11-.37.16a6.17424,6.17424,0,0,1-1.13.35,5.39169,5.39169,0,0,1-.6.09,5.485,5.485,0,0,1-.58.03H84a5.82288,5.82288,0,0,1-.59-.03q-.29993-.02994-.6-.09c-.15-.03-.29-.07-.44-.11-.14-.04-.28-.09-.42-.14a4.3875,4.3875,0,0,1-.63-.26,5.86158,5.86158,0,0,1-2.2-1.9c-.06-.07-.1-.14-.15-.21A5.89322,5.89322,0,0,1,78,42a6.00173,6.00173,0,0,1,10.96-3.38A5.95394,5.95394,0,0,1,90,42Z" transform="translate(-9.5 -9.5)"/>
      <path class="cls-1" d="M75,26a6.00475,6.00475,0,0,1-6,6c-.15,0-.3-.01-.44-.02a5.78866,5.78866,0,0,1-2.04-.52A5.99862,5.99862,0,1,1,75,26Z" transform="translate(-9.5 -9.5)"/>
    </g>
    <path class="cls-1" d="M60,20A10,10,0,1,1,50,10,9.9981,9.9981,0,0,1,60,20Z" transform="translate(-9.5 -9.5)"/>
  </g>
  <ellipse class="cls-2" cx="13.09015" cy="39.46816" rx="1.88889" ry="1.11111" transform="translate(-33.23022 10.64594) rotate(-43.96207)"/>
  <ellipse class="cls-2" cx="28.42246" cy="23.13788" rx="1.88889" ry="1.11111" transform="translate(-17.59791 16.71361) rotate(-43.96207)"/>
  <ellipse class="cls-2" cx="46.45606" cy="13.88165" rx="3.07637" ry="1.80146" transform="translate(-8.6027 20.97276) rotate(-36.64688)"/>
  <ellipse class="cls-2" cx="66.53357" cy="23.13788" rx="1.88889" ry="1.11111" transform="translate(-6.91916 43.16966) rotate(-43.96207)"/>
  <ellipse class="cls-2" cx="81.20024" cy="39.46816" rx="1.88889" ry="1.11111" transform="translate(-14.14574 57.92675) rotate(-43.96207)"/>
  <path class="cls-3" d="M22,42a5.89322,5.89322,0,0,1-.97,3.26,5.98742,5.98742,0,0,1-9.3.95,8.10055,8.10055,0,0,0,.86005.05,8.37449,8.37449,0,0,0,8.34-7.67A5.90127,5.90127,0,0,1,22,42Z" transform="translate(-9.5 -9.5)"/>
  <path class="cls-3" d="M37,26.54791a5.89322,5.89322,0,0,1-.97,3.26,5.98742,5.98742,0,0,1-9.3.95,8.10055,8.10055,0,0,0,.86.05,8.37448,8.37448,0,0,0,8.34-7.67A5.90127,5.90127,0,0,1,37,26.54791Z" transform="translate(-9.5 -9.5)"/>
  <path class="cls-3" d="M60,19.72266a10.449,10.449,0,0,1-1.58461,5.584,9.95267,9.95267,0,0,1-3.83917,3.61417A9.3982,9.3982,0,0,1,50.198,30a9.51817,9.51817,0,0,1-6.97579-3.06614,12.62827,12.62827,0,0,0,1.405.08573c7.15536,0,13.053-5.78958,13.62472-13.13794A10.45,10.45,0,0,1,60,19.72266Z" transform="translate(-9.5 -9.5)"/>
  <path class="cls-3" d="M75,26a5.89322,5.89322,0,0,1-.97,3.26,5.98742,5.98742,0,0,1-9.3.94995A8.10055,8.10055,0,0,0,65.59,30.26a8.37449,8.37449,0,0,0,8.34-7.67A5.90127,5.90127,0,0,1,75,26Z" transform="translate(-9.5 -9.5)"/>
  <path class="cls-3" d="M90.03,42a5.24772,5.24772,0,0,1-.03.56,5.86209,5.86209,0,0,1-.94,2.7,5.5767,5.5767,0,0,1-.61.77,4.04451,4.04451,0,0,1-.6.57,1.15427,1.15427,0,0,1-.25.2,4.07552,4.07552,0,0,1-.48.33.031.031,0,0,0-.02.01c-.01.01-.02.01-.03.02-.11.07-.22.13-.33.19-.01.01-.02.01-.03.02-.12.05-.25.11-.37.16a5.13025,5.13025,0,0,1-1.13.35,5.39169,5.39169,0,0,1-.6.09,5.485,5.485,0,0,1-.58.03H84a5.82288,5.82288,0,0,1-.59-.03q-.29993-.02994-.6-.09c-.15-.03-.29-.07-.44-.11-.14-.04-.28-.09-.42-.14a6.13591,6.13591,0,0,1-2.19-1.42,8.09941,8.09941,0,0,0,.86.05,8.37769,8.37769,0,0,0,8.34-7.64v-.03A5.79157,5.79157,0,0,1,90,41.44,5.11031,5.11031,0,0,1,90.03,42Z" transform="translate(-9.5 -9.5)"/>
  <path class="cls-3" d="M82.72,47.71c-.13995-.04-.28-.09-.42-.13995a4.39212,4.39212,0,0,1-.63-.26l-.07995.16-.01.02L70.35,69.94a8.7135,8.7135,0,0,1,1.02.06,9.473,9.473,0,0,1,2.27.5H50.35v-.04C64.21,69.79,75.75,59.57,79.37,45.79c.04-.12.07-.25.1-.38l1.2.85Z" transform="translate(-9.5 -9.5)"/>
  <path class="cls-3" d="M72.47762,74.55937c0-1.55787-.81625-3.26927-3.22708-4.32858-.42075-.18693.46629.15575,0,0L69.98718,70a11.65216,11.65216,0,0,1,2.58143.51929h-.62544c.07954.02073.14777.04152.22738.06231A11.55334,11.55334,0,0,1,76.46914,73.043a9.92468,9.92468,0,0,1,3.33194,7.34275A12.30207,12.30207,0,0,1,81.45,80.5H57.94444C65.96158,80.5,72.47762,77.84124,72.47762,74.55937Z" transform="translate(-9.5 -9.5)"/>
</svg>
