<svg id="rook" xmlns="http://www.w3.org/2000/svg" viewBox="0 0 81 73">
  <defs>
    <style>
      .cls-1 {
        fill: #999;
        stroke: #000;
        stroke-miterlimit: 10;
      }

      .cls-2 {
        opacity: 0.25;
      }

      .cls-3 {
        fill: #f2f2f2;
      }
    </style>
  </defs>
  <title>rook</title>
  <path class="cls-1" d="M90,90H10a10.00422,10.00422,0,0,1,9.92-10A9.91505,9.91505,0,0,1,30,70.22V48L20,38V20.94A2.94479,2.94479,0,0,1,22.94,18h4.12A2.94479,2.94479,0,0,1,30,20.94V28H40V20.94A2.94479,2.94479,0,0,1,42.94,18H57.06A2.94479,2.94479,0,0,1,60,20.94V28H70V20.94A2.94479,2.94479,0,0,1,72.94,18h4.12A2.94479,2.94479,0,0,1,80,20.94V38L70,48V70.02a9.64006,9.64006,0,0,1,3.06.42A10.309,10.309,0,0,1,80.2,80a9.73465,9.73465,0,0,1,2.72.44A9.99172,9.99172,0,0,1,90,90Z" transform="translate(-9.5 -17.5)"/>
  <polygon class="cls-2" points="70.5 20.5 60.5 30.5 20.5 30.5 10.5 20.5 70.5 20.5"/>
  <ellipse class="cls-3" cx="22.21967" cy="20.21967" rx="1.41421" ry="1.10355" transform="translate(-17.28948 4.13388) rotate(-45)"/>
  <ellipse class="cls-3" cx="42.21967" cy="20.21967" rx="1.41421" ry="1.10355" transform="translate(-11.43161 18.27602) rotate(-45)"/>
  <ellipse class="cls-3" cx="72.21967" cy="20.21967" rx="1.41421" ry="1.10355" transform="translate(-2.64481 39.48922) rotate(-45)"/>
  <path class="cls-2" d="M70,48V70.44444H40.61C52.65,66.96364,61.77,62.82643,62.88,48Z" transform="translate(-9.5 -17.5)"/>
  <path class="cls-2" d="M72.91,75.01c0-1.69-1.87994-3.27-5.11-4.57h5.26A10.309,10.309,0,0,1,80.2,80a9.73465,9.73465,0,0,1,2.72.44H65.34C70.04,79.01,72.91,77.1,72.91,75.01Z" transform="translate(-9.5 -17.5)"/>
</svg>
