<svg id="white" xmlns="http://www.w3.org/2000/svg" viewBox="0 0 81 75">
  <defs>
    <style>
      .cls-1 {
        fill: #ccc;
        stroke: #000;
        stroke-miterlimit: 10;
      }

      .cls-2 {
        fill: #f2f2f2;
        opacity: 0.75;
      }

      .cls-3 {
        opacity: 0.16;
      }

      .cls-4 {
        opacity: 0.25;
      }
    </style>
  </defs>
  <title>whitebishop</title>
  <path class="cls-1" d="M90,90H10A10.00362,10.00362,0,0,1,20,80h5.51a50.29479,50.29479,0,0,1-2.3-11.21C23.07,67.22,23,65.62,23,64c0-19.06,9.97-34.83,22.96-37.57a6,6,0,1,1,8.08,0c.14.03.28.06.41.1,5.16,1.19,9.82,4.45,13.54,9.15L53.2,55.4a2,2,0,1,0,3.2,2.4L70.41,39.13c.05.08.1.16.15.25A47.75467,47.75467,0,0,1,77,64a51.00534,51.00534,0,0,1-2.51,16H80A10.00361,10.00361,0,0,1,90,90Z" transform="translate(-9.5 -15.5)"/>
  <ellipse class="cls-2" cx="35.94271" cy="36.67205" rx="7.96956" ry="1.84892" transform="translate(-24.90368 20.65633) rotate(-45)"/>
  <ellipse class="cls-2" cx="47.4687" cy="19.62555" rx="2.21086" ry="0.98478" transform="translate(-9.29906 24.23023) rotate(-45.50404)"/>
  <path class="cls-3" d="M54.04,26.43c.14.03.28.06.41.1A30.80262,30.80262,0,0,1,49,27c-.76,0-1.5-.03-2.23-.08,4.57-.55,8.13-4.01,8.23-8.24a5.99639,5.99639,0,0,1-.96,7.75Z" transform="translate(-9.5 -15.5)"/>
  <path class="cls-4" d="M77,64.62a51.00534,51.00534,0,0,1-2.51,16H43.5c15.19,0,27.5-15.45,27.5-34.5A42.28658,42.28658,0,0,0,70.56,40,47.75464,47.75464,0,0,1,77,64.62Z" transform="translate(-9.5 -15.5)"/>
</svg>
