<svg id="white" xmlns="http://www.w3.org/2000/svg" viewBox="0 0 81 80.84981">
  <defs>
    <style>
      .cls-1 {
        fill: gray;
      }

      .cls-1, .cls-2, .cls-3, .cls-4 {
        stroke: #000;
        stroke-miterlimit: 10;
      }

      .cls-2 {
        fill: #ccc;
      }

      .cls-3 {
        fill: none;
      }

      .cls-4 {
        fill: #fff;
      }

      .cls-5 {
        fill: #f2f2f2;
        opacity: 0.75;
      }

      .cls-6 {
        opacity: 0.25;
      }
    </style>
  </defs>
  <title>whiteknight</title>
  <path class="cls-1" d="M53.38,49.27" transform="translate(-9.5 -9.65019)"/>
  <path class="cls-2" d="M90,90H10A10.00362,10.00362,0,0,1,20,80h2a95.49428,95.49428,0,0,1-7-35c0-17.67,12.22-25.33,16-27a19.29164,19.29164,0,0,1,5.38-1.22L37.96,11a1.14979,1.14979,0,0,1,2.15-.19l2.8,5.89A32.34792,32.34792,0,0,1,57,21S72,39,77,40c3.24.65,2.28,7.18-.43,11.7C75.1,54.15,73.11,56,71,56c-6,0-8-2-8-2l-6-6a14.2487,14.2487,0,0,1-3.62,1.26V49.27c.07.23,1.26,4.17,7.62,7.73,0,0,18.67,9.89,19,23a9.80206,9.80206,0,0,1,3.44.61A10.00855,10.00855,0,0,1,90,90Z" transform="translate(-9.5 -9.65019)"/>
  <path class="cls-3" d="M42.686,42.04871c1.88,7.51,6.89,7.97,10.38,7.27" transform="translate(-9.5 -9.65019)"/>
  <path class="cls-4" d="M56.2612,28.18357a1.23349,1.23349,0,0,1-1.23349,1.23349A2.6974,2.6974,0,0,1,53.066,27.56682a1.2335,1.2335,0,0,1,1.2335-1.23349A2.6974,2.6974,0,0,1,56.2612,28.18357Z" transform="translate(-9.5 -9.65019)"/>
  <ellipse class="cls-5" cx="24.8812" cy="26.19022" rx="6.00254" ry="1.76087" transform="translate(-20.7388 17.1294) rotate(-47.40304)"/>
  <path class="cls-6" d="M83.44,80.61H69.03C68.7,67.5,53.69,57.56,53.69,57.56c-6.36-3.56-7.55-7.5-7.62-7.73l-1.53-3.48L42.76,42.3l-.02-.04h.01c2.08-.4,5.74,5.66,14.31,2.49,0,0,8.09,8.62,19.51,6.95C75.1,54.15,73.11,56,71,56c-6,0-8-2-8-2l-6-6a14.2487,14.2487,0,0,1-3.62,1.26V49.27c.07.23,1.26,4.17,7.62,7.73,0,0,18.67,9.89,19,23A9.80206,9.80206,0,0,1,83.44,80.61Z" transform="translate(-9.5 -9.65019)"/>
</svg>
