<svg id="whiteknight" xmlns="http://www.w3.org/2000/svg" viewBox="0 0 810 797.17448">
  <defs>
    <style>
      .cls-1 {
        fill: #e6e6e6;
      }

      .cls-1, .cls-4 {
        stroke: #000;
        stroke-miterlimit: 10;
        stroke-width: 10px;
      }

      .cls-2 {
        opacity: 0.25;
      }

      .cls-3, .cls-4 {
        fill: #fff;
      }

      .cls-3 {
        opacity: 0.75;
      }
    </style>
  </defs>
  <title>whiteknight</title>
  <g id="shape">
    <path id="body" class="cls-1" d="M700,700h0S847.93,592.16,563.84,468.06c-.64-.28-1.28-.56-1.93006-.84C578.71,463.57,590,460,590,460l14.78,8.06L700,520c67.74,13.55,96.73-15.74,108.15-51.94,9-28.47,7.11-61.22,4.67-80.75A19.76489,19.76489,0,0,0,793.2,370a33.17443,33.17443,0,0,1-22.79-9.06L600,200c-52.69-23.42-100.23-33.13-141.14-35.15l-20.64-46.43a9.41717,9.41717,0,0,0-17.59,1l-14.81,47.05C338.97,174.01,300,200,300,200c-239.67,200,0,500,0,500h0M629.86,290.31c-4.86,4.86-15.55,2.04-23.88-6.29s-11.15-19.02-6.29-23.88,15.56-2.05,23.89,6.28S634.72,285.45,629.86,290.31Z" transform="translate(-95 -107.82552)"/>
    <g id="base">
      <path class="cls-1" d="M104.9999,692.17448H705.0001A99.9999,99.9999,0,0,1,805,792.17438v.0001a0,0,0,0,1,0,0H5a0,0,0,0,1,0,0v-.0001A99.9999,99.9999,0,0,1,104.9999,692.17448Z"/>
      <path class="cls-1" d="M204.9999,592.17448H605.0001A99.9999,99.9999,0,0,1,705,692.17438v.0001a0,0,0,0,1,0,0H105a0,0,0,0,1,0,0v-.0001A99.9999,99.9999,0,0,1,204.9999,592.17448Z"/>
    </g>
  </g>
  <g id="shadows">
    <path class="cls-2" d="M700,700a99.74633,99.74633,0,0,1,29.44,4.41H479.64c136.92-30.37,150.25-66.9,150.25-118.18,0-37.56-56.87-84.75-98.29-113.66a10.73683,10.73683,0,0,0-1.76-1.25c-52.26,6.8-121.35,2.92-110.25-68.68,0,0,32.81994,93.62,172.37,21.92,0,0,47.84,72.67,192.81,81.22,0,0-30.96,29.37-84.77,14.22L584.85,459.81s-9.49,2.9-23.93,6.05C843.72,589.79,700,700,700,700Z" transform="translate(-95 -107.82552)"/>
    <path class="cls-2" d="M743,754.83333c0-19.84763-20-40.34074-40-50.42592,24.78,1.75481,54.19,12.8687,70.71,29.53948A100.9302,100.9302,0,0,1,803,805.25926H503C669.18519,789.25926,743,800.03514,743,754.83333Z" transform="translate(-95 -107.82552)"/>
    <path class="cls-2" d="M841.588,849.57407c0-19.84763-20-40.34074-40-50.42592,24.78,1.75481,54.19,12.8687,70.71,29.53948A100.9302,100.9302,0,0,1,901.588,900h-300C767.77319,884,841.588,894.77588,841.588,849.57407Z" transform="translate(-95 -107.82552)"/>
  </g>
  <path class="cls-3" d="M254.65132,285.16961l-.0425-.01237c-4.58956-1.337-6.83093-5.61391-4.86931-9.32927,8.782-16.63333,34.8486-58.79263,83.2337-81.49,4.2702-2.00314,9.66638-.63945,11.77041,2.99535v0c1.90887,3.29766.406,7.29667-3.46731,9.11523-43.61924,20.47978-68.009,59.9055-76.04718,74.92248C263.43159,284.7293,258.80882,286.38074,254.65132,285.16961Z" transform="translate(-95 -107.82552)"/>
  <path id="eye" class="cls-4" d="M629.86,290.31c-4.86,4.86-15.55,2.04-23.88-6.29s-11.15-19.02-6.29-23.88,15.56-2.05,23.89,6.28S634.72,285.45,629.86,290.31Z" transform="translate(-95 -107.82552)"/>
</svg>
